{
	"asset":{
		"generator":"Khronos glTF Blender I/O v3.6.27",
		"version":"2.0"
	},
	"scene":0,
	"scenes":[
		{
			"name":"Scene",
			"nodes":[
				0
			]
		}
	],
	"nodes":[
		{
			"mesh":0,
			"name":"sides1_pCylinder48",
			"rotation":[
				0.7071067690849304,
				0,
				0,
				0.7071068286895752
			],
			"scale":[
				0.8342915177345276,
				0.8342915177345276,
				0.8713709115982056
			],
			"translation":[
				-0.043229248374700546,
				-0.000879140105098486,
				0.08173329383134842
			]
		}
	],
	"materials":[
		{
			"doubleSided":true,
			"emissiveFactor":[
				1,
				1,
				1
			],
			"emissiveTexture":{
				"index":0
			},
			"name":"D100 v4",
			"normalTexture":{
				"index":1
			},
			"pbrMetallicRoughness":{
				"baseColorTexture":{
					"index":2
				},
				"metallicRoughnessTexture":{
					"index":3
				}
			}
		}
	],
	"meshes":[
		{
			"name":"Mesh",
			"primitives":[
				{
					"attributes":{
						"POSITION":0,
						"NORMAL":1,
						"TEXCOORD_0":2
					},
					"indices":3,
					"material":0
				}
			]
		}
	],
	"textures":[
		{
			"sampler":0,
			"source":0
		},
		{
			"sampler":0,
			"source":1
		},
		{
			"sampler":0,
			"source":2
		},
		{
			"sampler":0,
			"source":3
		}
	],
	"images":[
		{
			"bufferView":4,
			"mimeType":"image/png",
			"name":"100D v3_lambert1_Emissive"
		},
		{
			"bufferView":5,
			"mimeType":"image/png",
			"name":"100D v3_lambert1_Normal"
		},
		{
			"bufferView":6,
			"mimeType":"image/png",
			"name":"100D v3_lambert1_BaseColor"
		},
		{
			"bufferView":7,
			"mimeType":"image/png",
			"name":"100D v3_lambert1_Metallic.png-100D v3_lambert1_Roughness.png"
		}
	],
	"accessors":[
		{
			"bufferView":0,
			"componentType":5126,
			"count":696,
			"max":[
				-5.485569953918457,
				1.848647117614746,
				1.6651861667633057
			],
			"min":[
				-9.146082878112793,
				-1.8374385833740234,
				-1.8308290243148804
			],
			"type":"VEC3"
		},
		{
			"bufferView":1,
			"componentType":5126,
			"count":696,
			"type":"VEC3"
		},
		{
			"bufferView":2,
			"componentType":5126,
			"count":696,
			"type":"VEC2"
		},
		{
			"bufferView":3,
			"componentType":5123,
			"count":3804,
			"type":"SCALAR"
		}
	],
	"bufferViews":[
		{
			"buffer":0,
			"byteLength":8352,
			"byteOffset":0,
			"target":34962
		},
		{
			"buffer":0,
			"byteLength":8352,
			"byteOffset":8352,
			"target":34962
		},
		{
			"buffer":0,
			"byteLength":5568,
			"byteOffset":16704,
			"target":34962
		},
		{
			"buffer":0,
			"byteLength":7608,
			"byteOffset":22272,
			"target":34963
		},
		{
			"buffer":0,
			"byteLength":24574,
			"byteOffset":29880
		},
		{
			"buffer":0,
			"byteLength":1314133,
			"byteOffset":54456
		},
		{
			"buffer":0,
			"byteLength":653414,
			"byteOffset":1368592
		},
		{
			"buffer":0,
			"byteLength":272839,
			"byteOffset":2022008
		}
	],
	"samplers":[
		{
			"magFilter":9729,
			"minFilter":9987
		}
	],
	"buffers":[
		{
			"byteLength":2294848,
			"uri":"data:application/octet-stream;base64,"
		}
	]
}
